<svg width="16" height="16" viewBox="0 0 16 16" fill="none" xmlns="http://www.w3.org/2000/svg">
<path d="M9.66665 2.66666C9.66665 2.19995 9.66665 1.9666 9.75747 1.78834C9.83737 1.63153 9.96485 1.50405 10.1217 1.42416C10.2999 1.33333 10.5333 1.33333 11 1.33333H13.3333C13.8 1.33333 14.0334 1.33333 14.2116 1.42416C14.3684 1.50405 14.4959 1.63153 14.5758 1.78834C14.6666 1.9666 14.6666 2.19995 14.6666 2.66666V4.99999C14.6666 5.46671 14.6666 5.70006 14.5758 5.87832C14.4959 6.03512 14.3684 6.16261 14.2116 6.2425C14.0334 6.33333 13.8 6.33333 13.3333 6.33333H11C10.5333 6.33333 10.2999 6.33333 10.1217 6.2425C9.96485 6.16261 9.83737 6.03512 9.75747 5.87832C9.66665 5.70006 9.66665 5.46671 9.66665 4.99999V2.66666Z" stroke="#5228B6" stroke-width="2" stroke-linecap="round" stroke-linejoin="round"/>
<path d="M1.33331 2.66666C1.33331 2.19995 1.33331 1.9666 1.42414 1.78834C1.50404 1.63153 1.63152 1.50405 1.78832 1.42416C1.96658 1.33333 2.19994 1.33333 2.66665 1.33333H4.99998C5.46669 1.33333 5.70005 1.33333 5.8783 1.42416C6.03511 1.50405 6.16259 1.63153 6.24248 1.78834C6.33331 1.9666 6.33331 2.19995 6.33331 2.66666V4.99999C6.33331 5.46671 6.33331 5.70006 6.24248 5.87832C6.16259 6.03512 6.03511 6.16261 5.8783 6.2425C5.70005 6.33333 5.46669 6.33333 4.99998 6.33333H2.66665C2.19994 6.33333 1.96658 6.33333 1.78832 6.2425C1.63152 6.16261 1.50404 6.03512 1.42414 5.87832C1.33331 5.70006 1.33331 5.46671 1.33331 4.99999V2.66666Z" stroke="#5228B6" stroke-width="2" stroke-linecap="round" stroke-linejoin="round"/>
<path d="M1.33331 11C1.33331 10.5333 1.33331 10.2999 1.42414 10.1217C1.50404 9.96487 1.63152 9.83738 1.78832 9.75749C1.96658 9.66666 2.19994 9.66666 2.66665 9.66666H4.99998C5.46669 9.66666 5.70005 9.66666 5.8783 9.75749C6.03511 9.83738 6.16259 9.96487 6.24248 10.1217C6.33331 10.2999 6.33331 10.5333 6.33331 11V13.3333C6.33331 13.8 6.33331 14.0334 6.24248 14.2117C6.16259 14.3685 6.03511 14.4959 5.8783 14.5758C5.70005 14.6667 5.46669 14.6667 4.99998 14.6667H2.66665C2.19994 14.6667 1.96658 14.6667 1.78832 14.5758C1.63152 14.4959 1.50404 14.3685 1.42414 14.2117C1.33331 14.0334 1.33331 13.8 1.33331 13.3333V11Z" stroke="#5228B6" stroke-width="2" stroke-linecap="round" stroke-linejoin="round"/>
<path d="M9.66665 11C9.66665 10.5333 9.66665 10.2999 9.75747 10.1217C9.83737 9.96487 9.96485 9.83738 10.1217 9.75749C10.2999 9.66666 10.5333 9.66666 11 9.66666H13.3333C13.8 9.66666 14.0334 9.66666 14.2116 9.75749C14.3684 9.83738 14.4959 9.96487 14.5758 10.1217C14.6666 10.2999 14.6666 10.5333 14.6666 11V13.3333C14.6666 13.8 14.6666 14.0334 14.5758 14.2117C14.4959 14.3685 14.3684 14.4959 14.2116 14.5758C14.0334 14.6667 13.8 14.6667 13.3333 14.6667H11C10.5333 14.6667 10.2999 14.6667 10.1217 14.5758C9.96485 14.4959 9.83737 14.3685 9.75747 14.2117C9.66665 14.0334 9.66665 13.8 9.66665 13.3333V11Z" stroke="#5228B6" stroke-width="2" stroke-linecap="round" stroke-linejoin="round"/>
</svg>
